<?xml version="1.0" encoding="utf-8"?>
<!-- Generator: Adobe Illustrator 23.0.1, SVG Export Plug-In . SVG Version: 6.00 Build 0)  -->
<svg version="1.1" id="Capa_1" xmlns="http://www.w3.org/2000/svg" xmlns:xlink="http://www.w3.org/1999/xlink" x="0px" y="0px"
	 viewBox="0 0 141.7 141.7" style="enable-background:new 0 0 141.7 141.7;" xml:space="preserve">
<style type="text/css">
	.st0{fill-rule:evenodd;clip-rule:evenodd;fill:url(#SVGID_1_);}
	.st1{fill-rule:evenodd;clip-rule:evenodd;fill:url(#SVGID_2_);}
	.st2{fill-rule:evenodd;clip-rule:evenodd;fill:#FFFFFF;}
	.st3{fill-rule:evenodd;clip-rule:evenodd;fill:#FC9965;}
	.st4{fill-rule:evenodd;clip-rule:evenodd;fill:#FF2D55;}
	.st5{fill-rule:evenodd;clip-rule:evenodd;fill:url(#SVGID_3_);}
	.st6{fill-rule:evenodd;clip-rule:evenodd;fill:#FFBC5B;}
	.st7{fill-rule:evenodd;clip-rule:evenodd;fill:#FFC95B;}
</style>
<g>
	
		<linearGradient id="SVGID_1_" gradientUnits="userSpaceOnUse" x1="-233.2506" y1="466.9994" x2="-233.4921" y2="466.7579" gradientTransform="matrix(400 0 0 -400 93419.4063 186822.3281)">
		<stop  offset="0" style="stop-color:#FF2D55"/>
		<stop  offset="1" style="stop-color:#FFBC5B"/>
	</linearGradient>
	<circle class="st0" cx="70.9" cy="70.9" r="68.3"/>
	
		<linearGradient id="SVGID_2_" gradientUnits="userSpaceOnUse" x1="-232.816" y1="466.2589" x2="-232.816" y2="465.9173" gradientTransform="matrix(125 0 0 -150 29174.2988 69985.7891)">
		<stop  offset="0" style="stop-color:#A524B3"/>
		<stop  offset="1" style="stop-color:#FF2D55"/>
	</linearGradient>
	<path class="st1" d="M51,47v51.2h42.7L51,47z"/>
	<path class="st2" d="M8.3,98.2H51V47L8.3,98.2z"/>
	<path class="st3" d="M16.2,111.8c3.9,5.2,8.5,9.8,13.7,13.7h82c5.2-3.9,9.8-8.5,13.7-13.7H16.2z"/>
	<path class="st4" d="M29.9,125.5c11.4,8.6,25.6,13.7,41,13.7s29.6-5.1,41-13.7H29.9z"/>
	
		<linearGradient id="SVGID_3_" gradientUnits="userSpaceOnUse" x1="-233.3085" y1="466.1533" x2="-233.3085" y2="465.8118" gradientTransform="matrix(91.7 0 0 -110 21504.2402 51351.1406)">
		<stop  offset="0" style="stop-color:#A524B3"/>
		<stop  offset="1" style="stop-color:#FF2D55"/>
	</linearGradient>
	<path class="st5" d="M94.2,74.3v37.6h31.3L94.2,74.3z"/>
	<path class="st6" d="M94.2,98.2H8.3c2.1,4.9,4.8,9.5,8,13.7h78L94.2,98.2L94.2,98.2z"/>
	<path class="st2" d="M62.9,111.8h31.3V74.3L62.9,111.8z"/>
	<circle class="st7" cx="94.2" cy="47" r="17.1"/>
	<circle class="st7" cx="51" cy="28.2" r="8.5"/>
</g>
</svg>
