<?xml version="1.0" encoding="utf-8"?>
<!-- Generator: Adobe Illustrator 23.0.1, SVG Export Plug-In . SVG Version: 6.00 Build 0)  -->
<svg version="1.1" id="Capa_1" xmlns="http://www.w3.org/2000/svg" xmlns:xlink="http://www.w3.org/1999/xlink" x="0px" y="0px"
	 viewBox="0 0 141.7 141.7" style="enable-background:new 0 0 141.7 141.7;" xml:space="preserve">
<style type="text/css">
	.st0{fill:#FFFFFF;}
</style>
<g>
	<path class="st0" d="M131.6,80.7c2.7,3.5,4.3,7.8,4.3,12.4c0,3.5-2.2,6.5-5.4,7.6c-4.9,1.6-10,2.4-14.8,3c0.3-1.1,0.3-2.4,0.3-3.5
		c0-6.7-1.9-13.2-5.4-19.1c5.1,0,10.2-1.6,14.3-4.9l0.5,0.3C127.8,76.9,129.9,78.5,131.6,80.7L131.6,80.7z"/>
	<path class="st0" d="M110.2,43.5c7.3,0,13.2,5.9,13.2,13.2s-5.9,13.2-13.2,13.2C103,69.9,97,64,97,56.7
		C97.3,49.4,103.2,43.5,110.2,43.5z"/>
	<path class="st0" d="M88.9,46.4c0,10-8.1,18.1-18.1,18.1s-18.1-8.1-18.1-18.1s8.1-18.1,18.1-18.1S88.9,36.5,88.9,46.4"/>
	<path class="st0" d="M31.2,80.7c-3.5,5.7-5.4,12.4-5.4,19.1c0,1.1,0,2.4,0.3,3.5c-5.1-0.3-10-1.3-14.8-3c-3.2-1.1-5.4-4-5.4-7.6
		c0-4.6,1.6-8.9,4.3-12.4c1.6-2.2,3.8-3.8,6.2-4.6h0.5C21,79.1,26.1,80.7,31.2,80.7L31.2,80.7z"/>
	<path class="st0" d="M31.5,43.5c7.3,0,13.2,5.9,13.2,13.2s-5.9,13.2-13.2,13.2S18.3,64,18.3,56.7C18.3,49.4,24.2,43.5,31.5,43.5
		L31.5,43.5z"/>
</g>
<g>
	<path class="st0" d="M84.9,72.9c14.3,4.6,17,7.6,16.5,26.2c-0.3,13.8-21,14.8-28.6,14.8c-8.6,0-32.4-1.1-32.6-14.8
		c-0.3-14.8,0.8-21.3,15.6-26.2c2.7,3.8,5.4,7.3,8.4,11.3c-3,0-5.4,0-8.1,0c0,5.9,0,11.6,0,17.5c9.7,0,19.1,0,28.6,0
		c0-5.7,0-11.3,0-17.3c-2.4,0-5.1,0-8.1,0C79.5,80.2,82.2,76.6,84.9,72.9z"/>
	<path class="st0" d="M79,95.8c-5.7,0-11.3,0-17,0c0-1.9,0-3.8,0-5.7c5.7,0,11.3,0,17,0C79,92,79,93.6,79,95.8z"/>
	<path class="st0" d="M78.7,71.5c-2.7,3.8-5.4,7.6-8.1,11.3c-2.7-3.8-5.4-7.6-8.4-11.3C67.6,71.5,73,71.5,78.7,71.5z"/>
</g>
</svg>
