<?xml version="1.0" encoding="utf-8"?>
<!-- Generator: Adobe Illustrator 23.0.1, SVG Export Plug-In . SVG Version: 6.00 Build 0)  -->
<svg version="1.1" id="Capa_1" xmlns="http://www.w3.org/2000/svg" xmlns:xlink="http://www.w3.org/1999/xlink" x="0px" y="0px"
	 viewBox="0 0 141.7 141.7" style="enable-background:new 0 0 141.7 141.7;" xml:space="preserve">
<style type="text/css">
	.st0{fill-rule:evenodd;clip-rule:evenodd;fill:#FFFFFF;}
</style>
<g transform="translate(59)">
	<path class="st0" d="M-19.5,127.5L-19.5,127.5c0-4.2-3.1-7.4-7-7.4c-4,0-7,3.3-7,7.3v0.1c0,4.1,3.1,7.4,7,7.4
		C-22.4,134.8-19.5,131.5-19.5,127.5 M-35.2,127.5L-35.2,127.5c0-4.8,3.7-9,8.8-9c5.1,0,8.7,4.1,8.7,8.8v0.1c0,4.8-3.7,8.9-8.8,8.9
		C-31.5,136.4-35.2,132.3-35.2,127.5 M-13.9,127.5L-13.9,127.5c0-4.8,3.8-9,8.7-9c3.2,0,5.2,1.5,6.8,3.1l-1.2,1.2
		c-1.5-1.5-3.1-2.8-5.7-2.8c-3.9,0-6.9,3.2-6.9,7.3v0.1c0,4.1,3.1,7.4,7,7.4c2.4,0,4.3-1.2,5.7-2.8l1.1,1c-1.7,2-3.8,3.4-6.9,3.4
		C-10.1,136.4-13.9,132.3-13.9,127.5 M18.9,126.6c-0.2-3.4-2.2-6.6-6.1-6.6c-3.4,0-6,2.8-6.3,6.6H18.9z M4.8,127.5L4.8,127.5
		c0-5,3.5-8.9,8.1-8.9c4.8,0,7.8,3.9,7.8,8.9c0,0.3,0,0.4,0,0.7H6.5c0.3,4.2,3.3,6.7,6.7,6.7c2.6,0,4.4-1.2,5.8-2.7l1.1,1
		c-1.7,1.9-3.8,3.2-7,3.2C8.6,136.4,4.8,132.8,4.8,127.5z M37.1,129.5v-2c-1.4-0.4-3.4-0.8-5.8-0.8c-3.6,0-5.6,1.6-5.6,4v0.1
		c0,2.5,2.4,3.9,5,3.9C34.1,134.8,37.1,132.7,37.1,129.5 M23.9,131L23.9,131c0-3.6,3.1-5.6,7.5-5.6c2.4,0,4,0.3,5.7,0.7v-0.7
		c0-3.5-2.1-5.2-5.6-5.2c-2.1,0-3.8,0.6-5.4,1.4l-0.6-1.4c1.9-0.9,3.7-1.5,6.1-1.5c2.3,0,4.2,0.6,5.4,1.9c1.1,1.1,1.7,2.7,1.7,4.8
		V136h-1.6v-2.9c-1.2,1.6-3.3,3.3-6.5,3.3C27.3,136.4,23.9,134.5,23.9,131 M44.4,118.9h1.6v3.2c1.1-2,3-3.6,6.1-3.6
		c4.3,0,6.8,3,6.8,7.1v10.5h-1.6v-10.2c0-3.5-2-5.8-5.4-5.8c-3.3,0-5.9,2.6-5.9,6.1v9.9h-1.6V118.9z M-23.2,51.3
		c0,2.8-2.3,5.1-5.1,5.1c-2.8,0-5.1-2.3-5.1-5.1s2.3-5.1,5.1-5.1C-25.4,46.2-23.2,48.5-23.2,51.3 M57.3,51.3c0,2.8-2.3,5.1-5.1,5.1
		c-2.8,0-5.1-2.3-5.1-5.1s2.3-5.1,5.1-5.1C55,46.2,57.3,48.5,57.3,51.3 M17.1,71.3c0,2.8-2.3,5.1-5.1,5.1c-2.8,0-5.1-2.3-5.1-5.1
		c0-2.8,2.3-5.1,5.1-5.1C14.8,66.2,17.1,68.5,17.1,71.3 M-3.2,61.4c0,2.8-2.3,5.1-5.1,5.1c-2.8,0-5.1-2.3-5.1-5.1
		c0-2.8,2.3-5.1,5.1-5.1C-5.5,56.3-3.2,58.6-3.2,61.4 M37,61.4c0,2.8-2.3,5.1-5.1,5.1c-2.8,0-5.1-2.3-5.1-5.1c0-2.8,2.3-5.1,5.1-5.1
		C34.8,56.3,37,58.6,37,61.4 M-24.8,66.6c0,1.9-1.5,3.4-3.4,3.4c-1.9,0-3.4-1.5-3.4-3.4c0-1.9,1.5-3.4,3.4-3.4
		C-26.3,63.2-24.8,64.7-24.8,66.6 M55.7,66.6c0,1.9-1.5,3.4-3.4,3.4c-1.9,0-3.4-1.5-3.4-3.4c0-1.9,1.5-3.4,3.4-3.4
		C54.1,63.2,55.7,64.7,55.7,66.6 M15.4,86.9c0,1.9-1.5,3.4-3.4,3.4c-1.9,0-3.4-1.5-3.4-3.4c0-1.9,1.5-3.4,3.4-3.4
		C13.9,83.5,15.4,85,15.4,86.9 M-4.8,76.8c0,1.9-1.5,3.4-3.4,3.4c-1.9,0-3.4-1.5-3.4-3.4c0-1.9,1.5-3.4,3.4-3.4
		C-6.4,73.3-4.8,74.9-4.8,76.8 M35.4,76.8c0,1.9-1.5,3.4-3.4,3.4c-1.9,0-3.4-1.5-3.4-3.4c0-1.9,1.5-3.4,3.4-3.4
		C33.9,73.3,35.4,74.9,35.4,76.8 M-26.4,78.7c0,1-0.8,1.8-1.8,1.8c-1,0-1.8-0.8-1.8-1.8c0-1,0.8-1.8,1.8-1.8
		C-27.2,76.9-26.4,77.7-26.4,78.7 M54,78.7c0,1-0.8,1.8-1.8,1.8c-1,0-1.8-0.8-1.8-1.8c0-1,0.8-1.8,1.8-1.8
		C53.2,76.9,54,77.7,54,78.7 M13.8,99c0,1-0.8,1.8-1.8,1.8c-1,0-1.8-0.8-1.8-1.8s0.8-1.8,1.8-1.8C13,97.2,13.8,98,13.8,99
		 M-6.5,88.8c0,1-0.8,1.8-1.8,1.8c-1,0-1.8-0.8-1.8-1.8c0-1,0.8-1.8,1.8-1.8C-7.3,87-6.5,87.8-6.5,88.8 M33.8,88.8
		c0,1-0.8,1.8-1.8,1.8c-1,0-1.8-0.8-1.8-1.8c0-1,0.8-1.8,1.8-1.8C33,87,33.8,87.8,33.8,88.8 M18.7,12.2c0,3.8-3.1,6.9-6.8,6.9
		C8.1,19.1,5,16,5,12.2c0-3.8,3.1-6.9,6.8-6.9C15.6,5.4,18.7,8.4,18.7,12.2 M18.7,32.5c0,3.8-3.1,6.9-6.8,6.9
		c-3.8,0-6.8-3.1-6.8-6.9c0-3.8,3.1-6.9,6.8-6.9C15.6,25.7,18.7,28.7,18.7,32.5 M18.7,52.5c0,3.8-3.1,6.8-6.8,6.8
		c-3.8,0-6.8-3.1-6.8-6.8c0-3.8,3.1-6.9,6.8-6.9C15.6,45.7,18.7,48.7,18.7,52.5 M58.9,32.5c0,3.8-3.1,6.9-6.8,6.9
		c-3.8,0-6.8-3.1-6.8-6.9c0-3.8,3.1-6.9,6.8-6.9C55.9,25.7,58.9,28.7,58.9,32.5 M-21.5,32.5c0,3.8-3.1,6.9-6.8,6.9s-6.8-3.1-6.8-6.9
		c0-3.8,3.1-6.9,6.8-6.9S-21.5,28.7-21.5,32.5 M-1.3,22.4c0,3.8-3.1,6.9-6.8,6.9s-6.8-3.1-6.8-6.9c0-3.8,3.1-6.9,6.8-6.9
		S-1.3,18.6-1.3,22.4 M-1.3,42.4c0,3.8-3.1,6.9-6.8,6.9s-6.8-3.1-6.8-6.9c0-3.8,3.1-6.8,6.8-6.8S-1.3,38.6-1.3,42.4 M39,22.4
		c0,3.8-3.1,6.9-6.8,6.9c-3.8,0-6.8-3.1-6.8-6.9c0-3.8,3.1-6.9,6.8-6.9C35.9,15.5,39,18.6,39,22.4 M39,42.4c0,3.8-3.1,6.9-6.8,6.9
		c-3.8,0-6.8-3.1-6.8-6.9c0-3.8,3.1-6.8,6.8-6.8C35.9,35.5,39,38.6,39,42.4"/>
</g>
</svg>
