<?xml version="1.0" encoding="utf-8"?>
<!-- Generator: Adobe Illustrator 23.0.5, SVG Export Plug-In . SVG Version: 6.00 Build 0)  -->
<svg version="1.1" id="Layer_1" xmlns="http://www.w3.org/2000/svg" xmlns:xlink="http://www.w3.org/1999/xlink" x="0px" y="0px"
	 viewBox="0 0 1600 168" style="enable-background:new 0 0 1600 168;" xml:space="preserve">
<style type="text/css">
	.st0{fill:#FFFFFF;}
	.st1{fill:#EC514A;}
</style>
<g>
	<path class="st1" d="M117.41,120.93H66.33l-9.49,23.47H21.98L75.3,23.6h33.65l53.5,120.8H126.9L117.41,120.93z M107.4,95.73
		L91.87,57.08L76.34,95.73H107.4z"/>
	<path class="st1" d="M281.18,144.4l-0.35-64.02l-31.06,52.12h-15.19L203.69,82.1v62.3h-31.58V23.6h28.13l42.45,69.72l41.42-69.72
		h28.13l0.35,120.8H281.18z"/>
	<path class="st1" d="M417.68,120.93H366.6l-9.49,23.47h-34.86l53.32-120.8h33.65l53.5,120.8h-35.55L417.68,120.93z M407.67,95.73
		l-15.53-38.66l-15.53,38.66H407.67z"/>
	<path class="st1" d="M581.45,117.31v27.09h-108.2V123l60.92-72.31H474.8V23.6h104.06V45l-60.92,72.31H581.45z"/>
	<path class="st1" d="M596.46,23.6h34.17v120.8h-34.17V23.6z"/>
	<path class="st1" d="M762.98,23.6v120.8h-28.13l-53.32-64.37v64.37h-33.48V23.6h28.13l53.32,64.37V23.6H762.98z"/>
	<path class="st1" d="M861.18,81.41h30.2v50.05c-13.98,10.01-33.13,15.36-50.74,15.36c-38.48,0-66.61-26.06-66.61-62.82
		c0-36.76,28.13-62.81,67.3-62.81c22.61,0,40.9,7.77,52.81,22.09l-21.74,19.67c-8.28-9.15-17.77-13.46-29.34-13.46
		c-20.71,0-34.51,13.63-34.51,34.51c0,20.36,13.81,34.51,34.17,34.51c6.39,0,12.42-1.21,18.46-3.97V81.41z"/>
	<path class="st1" d="M1010.1,112.47c0,20.36-14.84,31.93-44.52,31.93h-53.84V23.6h50.39c25.89,0,41.59,10.87,41.59,30.89
		c0,14.32-8.11,23.64-20.19,27.61C1000.61,85.38,1010.1,95.73,1010.1,112.47z M920.54,31.19v48.15h41.24
		c20.88,0,32.96-8.11,32.96-24.16c0-15.88-12.08-23.99-32.96-23.99H920.54z M1001.3,111.78c0-17.26-12.6-24.85-35.72-24.85h-45.04
		v49.87h45.04C988.7,136.81,1001.3,129.21,1001.3,111.78z"/>
	<path class="st1" d="M1027.7,23.6h8.8v112.86h69.55v7.94h-78.35V23.6z"/>
	<path class="st1" d="M1111.23,84c0-35.03,26.75-61.26,62.81-61.26c35.9,0,62.82,26.06,62.82,61.26s-26.92,61.26-62.82,61.26
		C1137.97,145.26,1111.23,119.03,1111.23,84z M1227.88,84c0-30.54-23.12-53.15-53.84-53.15c-30.89,0-54.01,22.61-54.01,53.15
		s23.12,53.15,54.01,53.15C1204.76,137.15,1227.88,114.54,1227.88,84z"/>
	<path class="st1" d="M1255.84,84c0-35.2,26.75-61.26,62.64-61.26c17.08,0,32.44,5.52,42.97,16.74l-5.52,5.7
		c-10.35-10.18-22.95-14.32-37.1-14.32c-30.89,0-54.19,22.78-54.19,53.15c0,30.37,23.3,53.15,54.19,53.15
		c14.15,0,26.75-4.31,37.1-14.5l5.52,5.69c-10.53,11.22-25.89,16.91-42.97,16.91C1282.59,145.26,1255.84,119.2,1255.84,84z"/>
	<path class="st1" d="M1419.95,84.86l-27.09,27.78v31.75h-8.8V23.6h8.8v77.66l75.41-77.66h10.7l-53.15,54.88l56.77,65.92h-10.7
		L1419.95,84.86z"/>
	<path class="st1" d="M1490.53,128.87l3.97-6.56c8.28,8.63,23.64,15.19,39.86,15.19c24.16,0,34.86-10.53,34.86-23.64
		c0-36.24-75.41-14.5-75.41-59.02c0-17.08,13.12-32.1,42.8-32.1c13.29,0,27.09,4.14,36.41,10.87l-3.28,7.08
		c-10.01-6.9-22.26-10.18-33.13-10.18c-23.47,0-34,10.87-34,24.16c0,36.24,75.41,14.84,75.41,58.67c0,17.08-13.63,31.93-43.49,31.93
		C1516.59,145.26,1499.33,138.53,1490.53,128.87z"/>
</g>
</svg>
