<svg width="1045" height="277" viewBox="0 0 1045 277" fill="none" xmlns="http://www.w3.org/2000/svg">
<path d="M431.66 109.39C428.82 98.3201 421.66 90.2201 407.66 90.2201C387 90.2201 378.36 108.44 378.36 126.93C378.36 145.42 387 163.65 407.66 163.65C422.66 163.65 430.88 152.45 432.22 138.41H448.69C447.34 161.49 431.01 177.41 407.69 177.41C378.8 177.41 361.52 154.46 361.52 126.92C361.52 99.3801 378.74 76.3901 407.63 76.3901C429.36 76.5201 446.5 88.5401 448.53 109.33L431.66 109.39Z" fill="white"/>
<path d="M458.66 140.11C458.66 118.78 471.48 103.4 493.89 103.4C516.3 103.4 529.12 118.78 529.12 140.11C529.12 161.44 516.3 176.97 493.89 176.97C471.48 176.97 458.66 161.58 458.66 140.11ZM513.73 140.11C513.73 128.11 507.66 115.55 493.89 115.55C480.12 115.55 474.05 128.1 474.05 140.11C474.05 152.12 480.12 164.82 493.89 164.82C507.66 164.82 513.73 152.26 513.73 140.11Z" fill="white"/>
<path d="M542.35 78.6902H557.74V93.2702H542.35V78.6902ZM542.35 105.29H557.74V175.08H542.35V105.29Z" fill="white"/>
<path d="M574.48 105.29H589.06V115.55L589.33 115.82C591.541 112.019 594.714 108.869 598.531 106.687C602.348 104.504 606.673 103.367 611.07 103.39C626.19 103.39 635.77 111.49 635.77 127.14V175.07H620.38V131.2C620.11 120.27 615.79 115.55 606.75 115.55C596.49 115.55 589.87 123.64 589.87 133.9V175.08H574.48V105.29Z" fill="white"/>
<path d="M738.23 175.08H727.43L724.87 163.74C715.87 174 707.59 177.37 695.87 177.37C667 177.39 649.68 154.39 649.68 126.88C649.68 99.3701 667 76.3901 695.85 76.3901C716.85 76.3901 734.59 87.5901 737.15 109.33H720.68C719.06 96.6401 708 90.1601 695.85 90.1601C675.19 90.1601 666.55 108.38 666.55 126.87C666.55 145.36 675.19 163.59 695.85 163.59C713.12 163.86 722.57 153.47 722.85 137.13H697.2V124.32H738.2L738.23 175.08Z" fill="white"/>
<path d="M766.45 144.16C766.45 155.1 772.39 164.82 785.21 164.82C794.12 164.82 799.52 160.9 802.21 153.21H816.8C813.43 168.46 800.47 176.97 785.21 176.97C763.35 176.97 751.06 161.71 751.06 140.25C751.06 120.4 764.06 103.4 784.81 103.4C806.81 103.4 820.31 123.24 817.75 144.16H766.45ZM802.36 134.04C801.82 124.32 795.2 115.55 784.81 115.55C774.14 115.55 766.86 123.64 766.45 134.04H802.36Z" fill="white"/>
<path d="M876.61 128.64C875.39 120.13 869.18 115.55 860.68 115.55C852.68 115.55 841.51 119.73 841.51 140.92C841.51 152.53 846.64 164.82 860 164.82C868.91 164.82 875.12 158.88 876.61 148.89H892C889.16 166.98 878 176.97 860 176.97C838.13 176.97 826.12 161.44 826.12 140.92C826.12 119.86 837.6 103.4 860.54 103.4C876.74 103.4 890.54 111.5 892 128.64H876.61Z" fill="white"/>
<path d="M905 78.6902H920.39V133.5L948.2 105.29H967.1L940.37 130.93L969.66 175.08H950.86L929.53 141.19L920.35 150.1V175.1H905V78.6902Z" fill="white"/>
<path d="M973.81 140.11C973.81 118.78 986.63 103.4 1009.04 103.4C1031.45 103.4 1044.28 118.78 1044.28 140.11C1044.28 161.44 1031.45 176.97 1009.04 176.97C986.63 176.97 973.81 161.58 973.81 140.11ZM1028.89 140.11C1028.89 128.11 1022.81 115.55 1009.04 115.55C995.27 115.55 989.2 128.1 989.2 140.11C989.2 152.12 995.27 164.82 1009.04 164.82C1022.81 164.82 1028.89 152.26 1028.89 140.11V140.11Z" fill="white"/>
<path d="M276 138.39C276.12 165.684 268.144 192.401 253.081 215.161C238.017 237.922 216.542 255.705 191.372 266.261C166.201 276.816 138.466 279.671 111.673 274.464C84.8806 269.257 60.2336 256.221 40.8493 237.006C21.465 217.791 8.21402 193.26 2.77206 166.513C-2.66989 139.767 -0.0584011 112.008 10.2763 86.7462C20.611 61.4843 38.2047 39.8544 60.8326 24.5917C83.4604 9.32896 110.106 1.11903 137.4 1.00009C173.998 0.840611 209.161 15.2258 235.153 40.9912C261.146 66.7566 275.839 101.792 276 138.39Z" fill="#8DC63F"/>
<path d="M265.65 138.44C265.764 163.683 258.391 188.393 244.462 209.445C230.532 230.497 210.673 246.946 187.396 256.712C164.118 266.477 138.467 269.12 113.687 264.308C88.9068 259.495 66.1105 247.442 48.1806 229.673C30.2508 211.904 17.9928 189.217 12.9568 164.481C7.9208 139.745 10.333 114.072 19.8883 90.707C29.4436 67.3422 45.7128 47.3357 66.6386 33.2174C87.5645 19.0991 112.207 11.5031 137.45 11.3902C171.297 11.2413 203.817 24.5424 227.859 48.3681C251.9 72.1938 265.494 104.593 265.65 138.44V138.44Z" fill="#F9E988"/>
<path d="M140.35 19.6601C148.463 18.2201 156.767 18.2201 164.88 19.6601C173.072 20.9572 180.99 23.6102 188.31 27.5101C195.59 31.5101 201.88 36.9401 208.14 42.0301C214.4 47.1201 220.63 52.3301 226.56 58.0301C232.613 63.6413 237.896 70.0303 242.27 77.0301C246.773 83.9745 250.464 91.4133 253.27 99.2001C258.6 114.86 260.45 131.73 257.79 147.82H257C254.33 131.87 250.71 116.67 245 102.21C242.32 94.9286 239.166 87.8302 235.56 80.9601C231.797 74.0891 227.65 67.4352 223.14 61.0301C218.553 54.5549 212.931 48.879 206.5 44.2301C200.02 39.6101 192.57 36.6201 185.36 33.7801C178.15 30.9401 171 28.0001 163.48 25.8401C155.96 23.6801 148.32 22.0601 140.34 20.4901L140.35 19.6601Z" fill="white"/>
<path d="M202.74 93.3901C193.48 90.7101 183.88 86.9101 174.16 83.0701C173.6 80.6301 171.44 77.5901 167.07 73.8801C160.72 68.3701 148.79 68.5101 138.48 70.9501C127.1 68.2701 115.86 67.3201 105.07 69.9501C16.82 94.2601 66.86 153.57 34.46 213.19C39.07 222.97 88.76 280.03 160.66 264.72C160.66 264.72 136.07 205.63 191.56 177.27C236.57 154.18 269.09 111.46 202.74 93.3901Z" fill="#8BC53F"/>
<path d="M213.64 132.2C213.646 133.258 213.338 134.294 212.755 135.177C212.172 136.061 211.34 136.751 210.365 137.161C209.39 137.572 208.315 137.684 207.276 137.483C206.237 137.282 205.281 136.778 204.528 136.034C203.776 135.29 203.261 134.34 203.049 133.303C202.836 132.267 202.936 131.19 203.336 130.211C203.735 129.231 204.416 128.391 205.293 127.798C206.169 127.206 207.202 126.886 208.26 126.88C209.678 126.875 211.04 127.432 212.049 128.429C213.057 129.426 213.629 130.782 213.64 132.2V132.2Z" fill="white"/>
<path d="M138.48 70.91C144.91 71.37 168.16 78.91 174.16 83.03C169.16 68.53 152.33 66.6 138.48 70.91Z" fill="#009345"/>
<path d="M144.6 107.58C144.602 112.462 143.156 117.234 140.446 121.294C137.735 125.354 133.881 128.519 129.372 130.389C124.862 132.258 119.899 132.748 115.111 131.797C110.323 130.846 105.925 128.496 102.472 125.045C99.0196 121.594 96.668 117.196 95.715 112.409C94.7619 107.621 95.25 102.658 97.1177 98.1479C98.9854 93.6376 102.149 89.7825 106.207 87.0702C110.266 84.3579 115.038 82.9102 119.92 82.9102C123.161 82.9088 126.37 83.546 129.364 84.7852C132.358 86.0244 135.079 87.8414 137.371 90.1323C139.663 92.4233 141.481 95.1433 142.721 98.137C143.962 101.131 144.6 104.34 144.6 107.58Z" fill="white"/>
<path d="M137.28 107.8C137.28 111.234 136.262 114.59 134.354 117.445C132.447 120.3 129.736 122.525 126.563 123.839C123.391 125.153 119.901 125.496 116.533 124.826C113.166 124.157 110.073 122.503 107.645 120.075C105.217 117.648 103.563 114.554 102.894 111.187C102.224 107.819 102.568 104.329 103.882 101.157C105.195 97.9846 107.421 95.2733 110.275 93.3658C113.13 91.4582 116.487 90.4401 119.92 90.4401C124.524 90.4401 128.94 92.2691 132.195 95.5247C135.451 98.7803 137.28 103.196 137.28 107.8V107.8Z" fill="#58595B"/>
<path d="M233.63 143.08C213.63 157.17 190.89 167.86 158.63 167.86C143.53 167.86 140.47 151.86 130.49 159.68C125.34 163.74 107.18 172.82 92.77 172.13C78.36 171.44 55 162.99 48.49 132.23C45.91 162.99 44.59 185.65 33.04 211.62C56.04 248.45 110.88 276.86 160.66 264.62C155.31 227.27 187.95 190.69 206.34 171.97C213.34 164.88 226.64 153.31 233.63 143.06V143.08Z" fill="#8BC53F"/>
<path d="M232.85 144C226.64 149.66 219.25 153.85 211.73 157.55C204.118 161.164 196.183 164.054 188.03 166.18C179.87 168.29 171.36 169.88 162.74 169.1C154.12 168.32 145.31 165.39 139.6 158.93L139.87 158.62C146.87 163.16 154.95 164.76 162.99 164.99C171.139 165.238 179.291 164.567 187.29 162.99C195.37 161.298 203.275 158.854 210.9 155.69C218.53 152.54 226.08 148.89 232.58 143.69L232.85 144Z" fill="#58595B"/>
</svg>
