<?xml version="1.0" encoding="utf-8"?>
<!-- Generator: Adobe Illustrator 25.0.1, SVG Export Plug-In . SVG Version: 6.00 Build 0)  -->
<svg version="1.1" id="Layer_1" xmlns="http://www.w3.org/2000/svg" xmlns:xlink="http://www.w3.org/1999/xlink" x="0px" y="0px"
	 viewBox="0 0 3000 1500" style="enable-background:new 0 0 3000 1500;" xml:space="preserve">
<style type="text/css">
	.st0{fill:#003F7F;}
	.st1{fill:#007FBF;}
	.st2{fill:#FFFFFF;}
</style>
<g id="XMLID_520_">
	<rect id="XMLID_582_" y="525" class="st0" width="2417.34" height="450"/>
	<rect id="XMLID_581_" class="st0" width="3000" height="450"/>
	<rect id="XMLID_580_" y="1050" class="st1" width="1543.36" height="450"/>
	<g id="XMLID_567_">
		<path id="XMLID_578_" class="st2" d="M318.97,1243.68V1425h-64.86v-38.83c-8.82,26.04-28.24,41.92-69.71,41.92
			c-74.11,0-123.52-56.47-123.52-157.5s51.17-155.28,133.67-155.28c68.38,0,114.7,35.28,123.52,101.9h-80.29
			c-4.42-27.35-18.09-36.18-43.23-36.18c-35.29,0-53.38,25.15-53.38,89.56c0,63.98,16.33,91.77,51.62,91.77
			c27.79,0,44.11-15.88,48.08-52.93h-52.05v-65.74H318.97z"/>
		<path id="XMLID_576_" class="st2" d="M489.66,1366.32H577V1425H371.85v-58.68h47.65v-107.64h-47.65V1200h117.81v41.47
			c16.76-30.44,49.41-46.77,112.49-46.77v71.49c-111.61-7.51-112.49,20.73-112.49,78.08V1366.32z"/>
		<path id="XMLID_573_" class="st2" d="M895.48,1311.61c0,71.49-52.05,118.69-122.19,118.69c-70.16,0-122.21-47.2-122.21-118.69
			c0-70.14,52.05-116.91,122.21-116.91C843.43,1194.7,895.48,1241.47,895.48,1311.61z M721.67,1311.61
			c0,36.19,20.73,60.01,51.17,60.01c30.88,0,51.62-23.82,51.62-60.01c0-34.84-20.75-58.23-51.62-58.23
			C742.39,1253.38,721.67,1276.77,721.67,1311.61z"/>
		<path id="XMLID_571_" class="st2" d="M1176.02,1425h-70.14v-33.53c-14.12,26.92-38.81,38.83-72.8,38.83
			c-52.5,0-82.05-36.17-82.05-89.55V1200h70.14v122.21c0,29.12,15.45,45.44,37.5,45.44c26.91,0,47.2-17.21,47.2-54.71V1200h70.14
			V1425z"/>
		<path id="XMLID_568_" class="st2" d="M1479.52,1313.39c0,70.14-42.35,116.91-102.79,116.91c-25.15,0-50.74-7.94-67.95-30.44h-0.43
			V1500h-70.16v-300h70.16v28.68h0.88c16.76-22.95,39.69-33.98,68.81-33.98C1436.28,1194.7,1479.52,1242.8,1479.52,1313.39z
			 M1408.48,1312.94c0-36.17-20.3-59.56-50.72-59.56c-30.89,0-51.62,23.39-51.62,58.68v3.09c0.43,33.96,20.73,56.47,51.62,56.47
			C1388.63,1371.62,1408.48,1348.23,1408.48,1312.94z"/>
	</g>
	<g id="XMLID_547_">
		<path id="XMLID_565_" class="st2" d="M153.53,665.74v60.45h152.63v66.17H153.53V900H76.31V600h240v65.74H153.53z"/>
		<path id="XMLID_562_" class="st2" d="M604.79,786.61c0,71.49-52.05,118.69-122.19,118.69c-70.16,0-122.21-47.2-122.21-118.69
			c0-70.14,52.05-116.91,122.21-116.91C552.74,669.7,604.79,716.47,604.79,786.61z M430.98,786.61c0,36.19,20.73,60.01,51.17,60.01
			c30.88,0,51.62-23.82,51.62-60.01c0-34.84-20.75-58.23-51.62-58.23C451.71,728.38,430.98,751.77,430.98,786.61z"/>
		<path id="XMLID_560_" class="st2" d="M885.33,900h-70.14v-33.53c-14.12,26.92-38.81,38.83-72.8,38.83
			c-52.5,0-82.05-36.17-82.05-89.55V675h70.14v122.21c0,29.12,15.45,45.44,37.5,45.44c26.91,0,47.2-17.21,47.2-54.71V675h70.14V900z
			"/>
		<path id="XMLID_558_" class="st2" d="M1176.92,759.27V900h-70.16V777.79c0-29.12-15.45-45.44-37.5-45.44
			c-26.91,0-47.2,17.21-47.2,54.71V900h-70.14V675h70.14v33.53c14.12-26.91,38.83-38.83,72.8-38.83
			C1147.35,669.7,1176.92,705.88,1176.92,759.27z"/>
		<path id="XMLID_555_" class="st2" d="M1229.8,786.61c0-70.14,42.35-116.91,102.81-116.91c25.15,0,50.72,7.94,67.93,30.44h0.45V600
			h70.14v300h-70.14v-28.68h-0.88c-16.78,22.95-39.71,33.98-68.83,33.98C1273.05,905.3,1229.8,857.2,1229.8,786.61z M1300.84,787.06
			c0,36.17,20.3,59.56,50.74,59.56c30.88,0,51.62-23.39,51.62-58.68v-3.09c-0.45-33.96-20.75-56.47-51.62-56.47
			C1320.68,728.38,1300.84,751.77,1300.84,787.06z"/>
		<path id="XMLID_552_" class="st2" d="M1524.89,787.94c0-68.38,48.53-118.24,122.64-118.24c74.13,0,116.03,50.74,116.03,124.42
			v10.58h-164.99v0.45c2.64,28.23,20.73,44.11,48.53,44.11c22.06,0,36.17-8.82,43.23-21.18h71.47
			c-13.67,40.59-46.32,77.22-110.73,77.22C1572.97,905.3,1524.89,856.32,1524.89,787.94z M1692.54,765
			c-2.66-26.03-18.97-42.35-45.44-42.35c-25.59,0-43.23,16.33-47.65,42.35H1692.54z"/>
		<path id="XMLID_550_" class="st2" d="M1943.09,841.32h87.35V900h-205.15v-58.68h47.65V733.68h-47.65V675h117.81v41.47
			c16.76-30.44,49.41-46.77,112.49-46.77v71.49c-111.61-7.51-112.49,20.73-112.49,78.08V841.32z"/>
		<path id="XMLID_548_" class="st2" d="M2227.6,719.99c-23.83,0-39.71,7.08-39.71,20.75c0,12.36,13.24,15,31.77,17.64l52.05,6.63
			c35.29,4.42,69.71,22.51,69.71,64.86c0,46.75-42.35,74.56-110.3,74.56c-74.11,0-116.46-32.65-119.55-83.39h69.71
			c1.76,20.3,20.73,31.32,50.72,31.32c25.59,0,39.71-7.49,39.71-19.85c0-7.94-5.73-14.57-25.59-16.76l-49.41-6.18
			c-44.99-5.75-78.53-23.39-78.53-66.19c0-46.32,40.59-72.78,105.88-72.78c67.95,0,110.73,28.67,115.15,75.44h-69.26
			C2266.41,726.62,2247.01,719.99,2227.6,719.99z"/>
	</g>
	<g id="XMLID_521_">
		<path id="XMLID_543_" class="st2" d="M319.4,292.05c0,51.19-40.14,82.95-96.61,82.95H75V75h139.85
			c55.14,0,96.61,28.69,96.61,77.65c0,36.62-23.82,56.47-62.65,67.05C292.04,228.54,319.4,249.7,319.4,292.05z M152.2,193.24h41.47
			c27.35,0,41.9-8.39,41.9-28.24c0-19.42-13.67-28.24-40.14-28.24H152.2V193.24z M243.08,281.47c0-20.75-14.57-29.56-43.23-29.56
			H152.2v60.89h43.23C226.32,312.8,243.08,303.08,243.08,281.47z"/>
		<path id="XMLID_541_" class="st2" d="M610.54,316.32V375H360.82v-58.68h88.24V133.68h-75.89V75h145.59v241.32H610.54z"/>
		<path id="XMLID_538_" class="st2" d="M895.48,261.61c0,71.49-52.05,118.69-122.19,118.69c-70.16,0-122.21-47.2-122.21-118.69
			c0-70.14,52.05-116.91,122.21-116.91C843.43,144.7,895.48,191.47,895.48,261.61z M721.67,261.61c0,36.19,20.73,60.01,51.17,60.01
			c30.88,0,51.62-23.82,51.62-60.01c0-34.84-20.75-58.23-51.62-58.23C742.39,203.38,721.67,226.77,721.67,261.61z"/>
		<path id="XMLID_536_" class="st2" d="M1068.83,380.3c-71.47,0-123.54-49.86-123.54-118.69c0-68.38,52.07-116.91,123.09-116.91
			c63.53,0,114.27,38.38,116.03,93.54h-71.02c-3.54-21.18-18.98-34.86-44.56-34.86c-32.2,0-52.5,22.94-52.5,58.23
			c0,36.19,20.3,60.01,52.5,60.01c24.7,0,41.9-13.67,44.99-38.38h70.59C1183.1,340.59,1132.79,380.3,1068.83,380.3z"/>
		<path id="XMLID_534_" class="st2" d="M1362.16,282.36h-48.96V375h-69.71V75h69.71v148.68h47.65l41.02-73.68h83.82l-64.86,100.15
			L1492.75,375h-84.27L1362.16,282.36z"/>
		<path id="XMLID_532_" class="st2" d="M1650.19,380.3c-71.47,0-123.54-49.86-123.54-118.69c0-68.38,52.07-116.91,123.09-116.91
			c63.53,0,114.27,38.38,116.03,93.54h-71.02c-3.54-21.18-18.98-34.86-44.56-34.86c-32.2,0-52.5,22.94-52.5,58.23
			c0,36.19,20.3,60.01,52.5,60.01c24.7,0,41.9-13.67,44.99-38.38h70.59C1764.44,340.59,1714.15,380.3,1650.19,380.3z"/>
		<path id="XMLID_530_" class="st2" d="M2049.4,234.27V375h-70.14V252.79c0-29.12-15.45-45.44-37.5-45.44
			c-26.91,0-47.2,17.21-47.2,54.71V375h-70.16V75h70.16v108.53c14.12-26.91,38.81-38.83,72.8-38.83
			C2019.4,144.7,2049.4,180.89,2049.4,234.27z"/>
		<path id="XMLID_527_" class="st2" d="M2101.85,261.61c0-70.14,46.32-117.34,106.78-117.34c25.58,0,50.29,8.39,63.96,30.88h0.45
			V150h70.14v225h-70.14v-28.68h-0.88c-12.81,22.95-35.74,33.98-64.86,33.98C2149.07,380.3,2101.85,332.2,2101.85,261.61z
			 M2172.89,262.06c0,36.17,20.3,59.56,50.74,59.56c30.88,0,51.6-23.39,51.6-58.68v-3.09c-0.43-33.96-20.73-56.47-51.6-56.47
			C2192.73,203.38,2172.89,226.77,2172.89,262.06z"/>
		<path id="XMLID_525_" class="st2" d="M2921.04,234.27V375h-70.16V252.79c0-29.12-15.43-45.44-37.5-45.44
			c-26.91,0-47.2,17.21-47.2,54.71V375h-70.14V150h70.14v33.53c14.12-26.91,38.83-38.83,72.8-38.83
			C2891.47,144.7,2921.04,180.89,2921.04,234.27z"/>
		<path id="XMLID_523_" class="st2" d="M2642.69,316.32V375h-242.64v-58.68h86.47V208.68h-72.8V150h142.95v166.32H2642.69z"/>
		<rect id="XMLID_522_" x="2486.51" y="37.5" class="st2" width="70.16" height="75"/>
	</g>
</g>
</svg>
