<svg viewBox="0 0 228.1999 186.4719" width="5000" height="4085.713885063052" xmlns="http://www.w3.org/2000/svg" xmlns:xlink="http://www.w3.org/1999/xlink" preserveAspectRatio="none"><defs></defs><style>.aD6z1nYkhcolor {fill:#FFFFFF;fill-opacity:1;}.aLgOaV3zRcolors-0 {fill:#FFFFFF;fill-opacity:1;}.axn6hl828Zcolor {fill:#FFFFFF;fill-opacity:1;}.icon1 {fill:#FFFFFF;fill-opacity:1;}.icon2 {fill:#D9D9D9;fill-opacity:1;}.icon3 {fill:#B4B4B4;fill-opacity:1;}</style><g opacity="1" transform="rotate(0 0 150.4719)">
<svg width="96.9754" height="36" x="0" y="150.4719" version="1.1" preserveAspectRatio="none" viewBox="2.8 -28.8 77.58 28.8">
  <g transform="matrix(1 0 0 1 0 0)" class="aD6z1nYkhcolor"><path d="M11.98 0L2.80 0L2.80-28.80L11.98-28.80Q12.34-28.80 13.41-28.78Q14.48-28.76 15.48-28.64L15.48-28.64Q18.90-28.20 21.27-26.21Q23.64-24.22 24.86-21.14Q26.08-18.06 26.08-14.40L26.08-14.40Q26.08-10.74 24.86-7.66Q23.64-4.58 21.27-2.59Q18.90-0.60 15.48-0.16L15.48-0.16Q14.50-0.04 13.42-0.02Q12.34 0 11.98 0L11.98 0ZM7.70-24.26L7.70-4.54L11.98-4.54Q12.58-4.54 13.51-4.58Q14.44-4.62 15.16-4.76L15.16-4.76Q17.20-5.14 18.48-6.58Q19.76-8.02 20.37-10.08Q20.98-12.14 20.98-14.40L20.98-14.40Q20.98-16.74 20.36-18.80Q19.74-20.86 18.45-22.26Q17.16-23.66 15.16-24.04L15.16-24.04Q14.44-24.20 13.51-24.23Q12.58-24.26 11.98-24.26L11.98-24.26L7.70-24.26Z M49.42 0L30.82 0L30.82-28.80L49.42-28.80L49.42-24.28L35.64-24.28L35.64-17.18L47.02-17.18L47.02-12.66L35.64-12.66L35.64-4.52L49.42-4.52L49.42 0Z M59.04 0L54.22 0L54.22-28.80L71.56-28.80L71.56-23.98L59.04-23.98L59.04-16.80L69.16-16.80L69.16-12L59.04-12L59.04 0Z M80.38 0L75.56 0L75.56-28.80L80.38-28.80L80.38 0Z"/></g>
</svg>
</g><g opacity="0.2" transform="rotate(0 63.085800000000006 0)">
<svg width="147.7966" height="133.5741" x="63.085800000000006" y="0" version="1.1" preserveAspectRatio="none" viewBox="0 0 100 90.377">
  <g transform="matrix(1 0 0 1 0 0)" class="aLgOaV3zRcolors-0"><path d="M100,29.465V0L51.567,3.308L50.23,30.277c-1.112-0.258-0.775,1.117-0.775,1.117l-0.932,0.443
	c-3.101-0.089-4.916,0.753-4.916,0.753c-1.864-0.266-4.299,0.62-4.299,0.62c-0.485-0.93-1.86-0.398-1.86-0.398v-0.62l-0.574-0.443
	v-1.417c-0.046-1.949-3.189-2.348-3.189-2.348v-1.107l-0.532-0.044l-0.447-3.677l-1.371-0.133c-0.131-4.607-6.411-3.528-6.411-3.528
	c-4.607,0-5.905,4.37-5.905,4.37C14.823,23.747,15,25.519,15,25.519l0.241,3.898h-0.95C11.341,29.534,14,31.779,14,31.779
	l-0.177,1.417c-3.783,1.241-4.432,5.376-4.432,5.376c-0.709-0.177-1.063,0.886-1.063,0.886c-2.777,1.239-4.372,6.555-4.372,6.555
	L2.42,38.984l2.658-2.362c0.65-1.713-0.826-0.708-0.826-0.708l-2.304,2.007c-1.182-1.534-1.123,0.886-1.123,0.886
	C0.117,39.044,0,39.812,0,39.812c0.294,1.182,1.299,0.59,1.299,0.59l1.417,7.207l-0.62,1.503C0,52.833,4.488,55.079,4.488,55.079
	l2.481,13.318c-0.59,1.305,0.503,3.134,0.503,3.134c0.089-0.737,0.768-1.007,0.768-1.007c1.063-1.031,2.422,1.007,2.422,1.007
	l-0.385-2.155C9.804,67.189,8.89,67.81,8.89,67.81L5.789,54.165c1.21-0.148,1.269-2.863,1.269-2.863
	c1.21-3.959,5.05-6.528,5.05-6.528l-0.354,4.873c-1.033-0.089-1.595,1.386-1.595,1.386c-0.03,1.801,1.802,0.914,1.802,0.914
	l0.059,3.048c-1.152,0.854-2.068,3.424-2.068,3.424l-0.147,2.48c0.059,1.829,1.417,1.566,1.417,1.566
	c0.679-0.914-0.562-1.687-0.562-1.687c-0.944-1.74,1.093-4.133,1.093-4.133c0.945,0.121,1.152-1.506,1.152-1.506
	c0,0.62,1.917,0.387,1.917,0.387l-0.532,3.544c-2.125,4.075-0.766,5.787-0.766,5.787l-0.235,3.25
	c-0.532,0.354-0.532,4.664-0.532,4.664c-0.944,4.253-0.177,8.565-0.177,8.565c-0.059,0.887-0.828,3.544-0.828,3.544
	C10.04,85.827,8.8,88.776,9.45,89.549c0.65,0.766,2.304,0.709,2.304,0.709c5.437-0.298,6.854-4.253,6.854-4.253
	c0.532-0.532,1.652-8.506,1.652-8.506c0.411-0.061,0.886-5.139,0.886-5.139c0.709-0.121,0.709-4.196,0.709-4.196
	c1.063-0.178,1.063-3.133,1.063-3.133c0.766,0.241,1.361-4.898,1.361-4.898c0.602-0.063,1.162,4.176,1.162,4.176
	c-0.042,2.572,1.109,4.167,1.109,4.167c-0.131,1.018,0.663,5.271,0.663,5.271c-0.042,2.526,1.51,11.518,1.51,11.518l0.486,0.443
	v1.595c-0.177,2.835,3.898,2.956,3.898,2.956c4.43,0.808,4.341-2.736,4.341-2.736c0-0.567-1.595-3.587-1.595-3.587
	c-0.266-1.24,0.266-3.278,0.266-3.278c0.62-2.126-0.975-12.227-0.975-12.227c0.797,0.089,0.532-1.506,0.532-1.506l0.975-0.089
	l-0.177-8.24l-1.74-0.177c0.234-1.651-0.772-3.601-0.772-3.601c0.121-1.177-0.146-3.707-0.146-3.707l1.903,0.042
	c2.304-0.396-0.177-4.873-0.177-4.873c3.991-3.234-0.617-5.759-0.617-5.759l0.131-1.373c11.387,0.31,11.387-1.551,11.387-1.551
	c1.438,0.087,2.575-0.059,3.438-0.266l-2.566,51.744h0.708l3.342-52.254c0.337-0.161,0.524-0.287,0.524-0.287
	c1.506-0.354,1.684-0.975,1.684-0.975v-3.456c-0.08-1.163-1.041-1.504-1.805-1.591l0.032-0.505L100,29.465z M33.847,30.833v-2.126
	c0,0,2.474,0.404,2.36,2.364L33.847,30.833z"></path></g>
</svg>
</g><g opacity="1" transform="rotate(0 98.9846 150.4719)">
<svg width="129.2153" height="36" x="98.9846" y="150.4719" version="1.1" preserveAspectRatio="none" viewBox="0.4 -29.4 107.67999999999999 30">
  <g transform="matrix(1 0 0 1 0 0)" class="axn6hl828Zcolor"><path d="M12.64 0L10.96 0L10.96-27.12L0.40-27.12L0.40-28.80L23.20-28.80L23.20-27.12L12.64-27.12L12.64 0Z M28.48 0L26.80 0L26.80-28.80L28.48-28.80L28.48 0Z M36.16 0L34.48 0L34.48-28.80L36.08-28.80L48.32-2.04L60.44-28.80L62.12-28.80L62.12-0.04L60.44-0.04L60.44-24.76L49.24 0L47.36 0L36.16-24.76L36.16 0Z M85.32 0L67.72 0L67.72-28.80L85.32-28.80L85.32-27.12L69.40-27.12L69.40-15.24L82.92-15.24L82.92-13.56L69.40-13.56L69.40-1.68L85.32-1.68L85.32 0Z M98.08 0.60L98.08 0.60Q95.16 0.60 92.83-0.35Q90.50-1.30 88.97-3.04Q87.44-4.78 86.92-7.16L86.92-7.16L88.60-7.48Q89.38-4.52 91.92-2.80Q94.46-1.08 98.08-1.08L98.08-1.08Q100.60-1.08 102.48-1.88Q104.36-2.68 105.40-4.13Q106.44-5.58 106.44-7.52L106.44-7.52Q106.44-8.98 105.90-9.96Q105.36-10.94 104.53-11.55Q103.70-12.16 102.80-12.52Q101.90-12.88 101.20-13.08L101.20-13.08L94.00-15.24Q92.44-15.70 91.31-16.36Q90.18-17.02 89.46-17.86Q88.74-18.70 88.39-19.70Q88.04-20.70 88.04-21.84L88.04-21.84Q88.04-24.04 89.23-25.75Q90.42-27.46 92.54-28.43Q94.66-29.40 97.44-29.40L97.44-29.40Q100.26-29.40 102.50-28.36Q104.74-27.32 106.17-25.43Q107.60-23.54 107.96-21L107.96-21L106.28-20.68Q106.00-22.78 104.80-24.37Q103.60-25.96 101.70-26.84Q99.80-27.72 97.44-27.72L97.44-27.72Q95.18-27.72 93.47-26.94Q91.76-26.16 90.80-24.84Q89.84-23.52 89.84-21.88L89.84-21.88Q89.84-20.16 90.77-19.13Q91.70-18.10 93.04-17.53Q94.38-16.96 95.60-16.60L95.60-16.60L101.56-14.80Q102.32-14.58 103.42-14.15Q104.52-13.72 105.59-12.92Q106.66-12.12 107.37-10.81Q108.08-9.50 108.08-7.52L108.08-7.52Q108.08-5.66 107.38-4.16Q106.68-2.66 105.36-1.60Q104.04-0.54 102.20 0.03Q100.36 0.60 98.08 0.60Z"/></g>
</svg>
</g><g opacity="0.2" transform="rotate(0 159.3324 5)">
<svg width="33.352" height="34.5185" x="159.3324" y="5" version="1.1" preserveAspectRatio="none" viewBox="6.197998046875 4.665999889373779 87.60400390625 90.66800689697266">
  <g transform="matrix(1 0 0 1 0 0)" class="icon1"><path d="M77.387,62.504c-6.036,0-11.308,3.284-14.159,8.15L37.769,55.956c0.809-1.94,1.26-4.066,1.26-6.296  c0-2.23-0.451-4.355-1.26-6.296l25.158-14.525c2.772,5.148,8.213,8.657,14.46,8.657c9.052,0,16.415-7.363,16.415-16.415  S86.438,4.666,77.387,4.666s-16.415,7.363-16.415,16.415c0,1.281,0.162,2.523,0.441,3.722L35.625,39.691  c-3.003-3.91-7.711-6.446-13.012-6.446c-9.052,0-16.415,7.363-16.415,16.415s7.363,16.415,16.415,16.415  c5.301,0,10.01-2.536,13.013-6.448l25.94,14.977c-0.377,1.378-0.595,2.82-0.595,4.315c0,9.052,7.363,16.415,16.415,16.415  s16.415-7.363,16.415-16.415S86.438,62.504,77.387,62.504z M77.387,8.918c6.707,0,12.163,5.456,12.163,12.163  s-5.456,12.163-12.163,12.163s-12.163-5.456-12.163-12.163S70.68,8.918,77.387,8.918z M22.613,61.823  c-6.707,0-12.163-5.456-12.163-12.163s5.456-12.163,12.163-12.163s12.163,5.456,12.163,12.163S29.32,61.823,22.613,61.823z   M77.387,91.082c-6.707,0-12.163-5.456-12.163-12.163s5.456-12.163,12.163-12.163S89.55,72.212,89.55,78.919  S84.094,91.082,77.387,91.082z"></path></g>
</svg>
</g></svg>