<svg width="665" height="136" viewBox="0 0 665 136" fill="none" xmlns="http://www.w3.org/2000/svg">
<path d="M166.268 33.5104H178.883L179.42 43.2391H180.494C182.104 38.9152 184.52 36.2128 188.009 34.5914C191.498 32.9699 195.524 32.1592 200.087 32.1592C205.992 32.1592 210.823 33.2402 214.044 35.4021C217.264 37.564 219.68 41.3474 221.022 46.7523C222.364 52.1571 223.169 59.7239 223.169 69.7229C223.169 79.7219 222.364 87.2887 221.022 92.6935C219.68 98.0984 217.264 101.882 214.044 104.314C210.823 106.476 206.26 107.827 200.355 107.827C195.524 107.827 191.23 107.016 188.009 105.665C184.788 104.314 182.372 101.612 180.762 98.0984H179.957V135.122H166V33.5104H166.268ZM204.381 94.0447C206.26 92.9638 207.602 90.8018 208.407 87.2887C208.944 83.7755 209.481 78.1004 209.481 70.2634C209.481 62.4264 209.212 56.7513 208.407 53.2381C207.87 49.725 206.528 47.563 204.381 46.482C202.502 45.4011 199.282 44.8606 194.719 44.8606C191.23 44.8606 188.277 45.4011 186.13 46.482C183.983 47.563 182.641 49.4547 181.836 52.1571C181.03 54.0488 180.494 56.481 180.494 59.1834C180.225 61.8859 180.225 65.399 180.225 69.9931C180.225 78.1004 180.762 83.7755 181.567 87.0184C182.641 89.9911 183.983 92.153 186.13 93.5043C188.277 94.8555 190.961 95.396 194.719 95.396C199.282 95.6662 202.502 95.1257 204.381 94.0447Z" fill="white"/>
<path d="M235.784 103.233C232.564 99.9899 230.953 94.3148 230.953 86.4777C230.953 80.8026 231.49 76.4788 232.832 73.2358C234.174 69.9929 236.053 67.831 239.005 66.2095C241.958 64.8583 245.984 64.0476 251.352 64.0476C256.183 64.0476 263.161 64.3178 272.287 64.5881V60.8047C272.287 55.3998 271.75 51.6164 270.945 49.4545C270.14 47.2925 268.529 45.9413 266.114 45.1306C263.698 44.5901 259.672 44.0496 254.036 44.0496C251.352 44.0496 248.131 44.3199 244.105 44.5901C240.079 44.8604 237.126 45.1306 234.711 45.6711V34.3209C241.958 32.9697 249.741 32.4292 258.33 32.4292C266.114 32.4292 272.018 33.2399 276.044 35.1316C280.07 37.0233 282.486 39.7258 283.828 43.7794C285.17 47.833 285.707 53.5081 285.707 61.0749V106.746H273.092L272.555 97.2874H271.75C269.871 101.611 267.187 104.314 263.43 105.665C259.672 107.016 255.378 107.827 250.546 107.827C244.105 108.097 239.005 106.476 235.784 103.233ZM265.308 95.3957C267.456 94.585 269.066 93.2338 270.14 91.0719C271.75 88.0992 272.555 83.5051 272.555 77.5597V74.0466H255.109C252.157 74.0466 250.01 74.3168 248.668 74.8573C247.326 75.3978 246.252 76.4788 245.715 78.1002C245.178 79.7217 244.91 82.1539 244.91 85.3968C244.91 88.6397 245.178 90.8016 245.715 92.4231C246.252 94.0445 247.594 95.1255 249.204 95.666C251.083 96.2065 253.767 96.4767 257.525 96.4767C260.477 96.4767 263.161 95.9362 265.308 95.3957Z" fill="white"/>
<path d="M341.534 107.016L325.161 80.2622H324.356L308.252 107.016H293.49L316.573 69.7228L294.295 33.5103H309.863L325.43 58.9131H326.235L341.802 33.5103H356.564L334.287 69.4525L357.638 106.746H341.534V107.016Z" fill="white"/>
<path d="M430.643 107.016L418.297 57.0214H417.223L404.877 107.016H387.968L369.18 33.5103H383.405L396.556 89.991H397.63L411.318 33.5103H424.738L438.695 89.991H439.769L452.652 33.5103H466.609L447.552 107.016H430.643V107.016Z" fill="white"/>
<path d="M479.221 104.854C475.195 102.692 472.78 99.1787 471.706 94.3143C470.632 89.4499 470.096 81.3426 470.096 70.2627C470.096 59.1828 470.632 51.0755 471.706 46.2111C472.78 41.3467 475.464 37.8336 479.221 35.6716C483.247 33.5097 489.689 32.699 498.815 32.699C507.94 32.699 514.382 33.7799 518.408 35.6716C522.434 37.8336 524.849 41.3467 525.923 46.2111C526.997 51.0755 527.533 59.1828 527.533 70.2627C527.533 81.3426 526.997 89.4499 525.923 94.3143C524.849 99.1787 522.165 102.692 518.408 104.854C514.382 107.016 507.94 108.097 498.815 108.097C489.689 108.097 482.979 107.016 479.221 104.854ZM509.551 94.5845C511.429 93.5036 512.771 91.3416 513.308 88.0987C513.845 84.8558 514.113 78.9105 514.113 70.2627C514.113 61.6149 513.845 55.6696 513.308 52.4267C512.771 49.1838 511.698 47.0218 509.551 45.9409C507.672 44.8599 503.914 44.3194 498.815 44.3194C493.715 44.3194 490.226 44.8599 488.347 45.9409C486.468 47.0218 485.126 49.1838 484.589 52.4267C484.052 55.6696 483.784 61.6149 483.784 70.2627C483.784 78.9105 484.052 84.5856 484.589 88.0987C485.126 91.3416 486.2 93.5036 488.347 94.5845C490.226 95.6655 493.983 96.206 498.815 96.206C503.914 96.206 507.403 95.6655 509.551 94.5845Z" fill="white"/>
<path d="M539.344 33.5102H551.959L552.495 46.7521H553.569C555.179 41.3472 557.595 37.5638 561.084 35.4019C564.573 33.2399 569.136 32.4292 574.773 32.4292V46.4818C569.136 46.4818 564.842 47.5628 561.621 49.4545C558.4 51.3462 556.253 54.3189 555.179 58.3725C553.837 62.4261 553.301 67.831 553.301 74.5871V107.016H539.344V33.5102Z" fill="white"/>
<path d="M582.02 107.016V0H595.976V107.016H582.02Z" fill="white"/>
<path d="M616.376 104.854C613.155 102.692 610.739 98.9088 609.397 93.504C608.055 88.0991 607.25 80.5323 607.25 70.5333C607.25 60.5344 608.055 52.9676 609.397 47.5627C610.739 42.1579 613.155 38.3745 616.376 35.9423C619.596 33.7803 624.159 32.4291 630.064 32.4291C634.895 32.4291 639.19 33.2398 642.41 34.5911C645.631 35.9423 648.047 38.6447 649.657 42.1579H650.462V0H664.419V107.016H651.804L651.268 97.2874H650.462C648.852 101.611 646.436 104.314 642.947 105.935C639.458 107.557 635.432 108.097 630.601 108.097C624.428 108.097 619.865 107.016 616.376 104.854ZM644.289 93.7742C646.168 92.6932 647.778 90.8015 648.584 88.3694C649.389 86.2074 649.926 83.7752 650.194 81.0728C650.462 78.3704 650.462 74.587 650.462 69.7226C650.462 61.8856 649.926 56.4807 648.852 53.2378C648.047 50.2651 646.436 48.1032 644.558 47.0222C642.41 45.671 639.458 45.1305 635.7 45.1305C631.138 45.1305 627.917 45.671 626.038 46.752C624.159 47.833 622.817 49.9949 622.28 53.508C621.744 56.751 621.207 62.4261 621.207 70.5333C621.207 78.3704 621.475 84.3157 622.28 87.5586C622.817 91.0718 624.159 93.2337 626.306 94.3147C628.185 95.3957 631.406 95.9361 635.969 95.9361C639.726 95.6659 642.41 94.8552 644.289 93.7742Z" fill="white"/>
<path d="M361.127 107.016V92.9639H375.084V107.016H361.127Z" fill="white"/>
<path d="M87.1023 54V85.8315L59.6816 101.747V73.8135C59.6816 71.5398 60.972 69.2661 62.9076 68.2917L87.1023 54Z" fill="white"/>
<mask id="mask0_26497_43431" style="mask-type:alpha" maskUnits="userSpaceOnUse" x="0" y="1" width="120" height="135">
<path d="M53.2284 2.70526L6.45192 29.9894C2.58077 32.263 0 36.4856 0 41.3577V132.63C0 135.228 2.58077 136.527 4.83894 135.553L24.5173 124.834C28.3885 122.56 33.2274 122.885 37.0986 124.834L53.551 134.254C57.4221 136.527 62.5837 136.527 66.4548 134.254L113.231 106.97C117.102 104.696 119.683 100.473 119.683 95.6012V41.3577C119.683 36.8104 117.102 32.5879 113.231 29.9894L66.1322 2.70526C62.2611 0.431581 57.4221 0.431581 53.2284 2.70526ZM83.875 86.5065L63.2289 98.5245C61.2933 99.8237 58.7125 99.8237 56.7769 98.5245L35.4856 86.5065C33.55 85.2072 32.2596 83.2584 32.2596 80.9847V56.299C32.2596 54.0254 33.55 51.7517 35.4856 50.7773L56.4543 38.4345C58.3899 37.1352 60.9707 37.1352 62.9063 38.4345L83.875 50.7773C85.8106 52.0765 87.101 54.0254 87.101 56.299V80.6599C87.101 83.2584 86.1332 85.2072 83.875 86.5065Z" fill="black"/>
</mask>
<g mask="url(#mask0_26497_43431)">
<path d="M101.5 194.5L-54.3848 104.5L-41.8848 82.8494L114 172.849L101.5 194.5Z" fill="#D12229"/>
<path d="M112.884 172.733L-43.0004 82.7327L-30.5004 61.0821L125.384 151.082L112.884 172.733Z" fill="#F68A1E"/>
<path d="M124.884 151.151L-31.0004 61.1506L-18.5004 39.5L137.384 129.5L124.884 151.151Z" fill="#FDE01A"/>
<path d="M136.384 129.538L-19.5004 39.5381L-7.00044 17.8875L148.884 107.887L136.384 129.538Z" fill="#007940"/>
<path d="M148.384 107.599L-7.50044 17.5988L4.99956 -4.05186L160.884 85.9482L148.384 107.599Z" fill="#24408E"/>
<path d="M160.065 86.1506L4.18089 -3.84937L16.6809 -25.5L172.565 64.5L160.065 86.1506Z" fill="#732982"/>
</g>
</svg>
