<svg width="500" height="140" viewBox="0 0 500 140" fill="none" xmlns="http://www.w3.org/2000/svg">
<rect x="28" y="30" width="60" height="60" fill="#6100FF"/>
<rect x="38" y="60" width="60" height="60" fill="#FF0A62"/>
<rect x="73" y="50" width="50" height="50" stroke="white" stroke-width="10"/>
<rect x="53" y="20" width="60" height="60" fill="#FFE500"/>
<path d="M190.04 102.4C187.72 102.4 185.48 102.12 183.32 101.56C181.24 101 179.48 100.24 178.04 99.28V128.8H164V43.84H174.92L176.6 50.56C178.84 48.4 181.4 46.64 184.28 45.28C187.16 43.84 190.44 43.12 194.12 43.12C201.64 43.12 207.56 45.64 211.88 50.68C216.28 55.64 218.48 62.6 218.48 71.56C218.48 76.68 217.68 81.16 216.08 85C214.56 88.84 212.48 92.08 209.84 94.72C207.28 97.28 204.28 99.2 200.84 100.48C197.4 101.76 193.8 102.4 190.04 102.4ZM190.52 54.04C187.64 54.04 185.12 54.76 182.96 56.2C180.8 57.56 179.16 58.92 178.04 60.28V88.6C179.4 89.72 180.96 90.56 182.72 91.12C184.48 91.6 186.32 91.84 188.24 91.84C190.16 91.84 192.04 91.48 193.88 90.76C195.72 90.04 197.36 88.92 198.8 87.4C200.32 85.8 201.52 83.76 202.4 81.28C203.36 78.72 203.84 75.6 203.84 71.92C203.84 66.64 202.72 62.36 200.48 59.08C198.32 55.72 195 54.04 190.52 54.04Z" fill="white"/>
<path d="M231.537 101.2V44.2H245.697V101.2H231.537ZM238.617 31.12C236.137 31.12 234.177 30.4 232.737 28.96C231.377 27.52 230.697 25.72 230.697 23.56C230.697 21.48 231.417 19.72 232.857 18.28C234.297 16.76 236.217 16 238.617 16C240.937 16 242.817 16.72 244.257 18.16C245.697 19.6 246.417 21.4 246.417 23.56C246.417 25.72 245.697 27.52 244.257 28.96C242.817 30.4 240.937 31.12 238.617 31.12Z" fill="white"/>
<path d="M291.012 91.84C293.572 91.84 295.812 91.56 297.732 91C299.732 90.36 301.412 89.68 302.772 88.96L305.532 98.92C303.772 99.8 301.452 100.6 298.572 101.32C295.692 102.04 292.532 102.4 289.092 102.4C284.852 102.4 280.892 101.8 277.212 100.6C273.532 99.32 270.332 97.44 267.612 94.96C264.892 92.48 262.732 89.4 261.132 85.72C259.612 82.04 258.852 77.76 258.852 72.88C258.852 68.4 259.572 64.32 261.012 60.64C262.532 56.96 264.612 53.84 267.252 51.28C269.972 48.64 273.172 46.64 276.852 45.28C280.612 43.84 284.732 43.12 289.212 43.12C291.692 43.12 294.252 43.36 296.892 43.84C299.532 44.32 302.372 45.28 305.412 46.72L302.412 56.8C300.572 55.76 298.692 54.96 296.772 54.4C294.852 53.84 292.852 53.56 290.772 53.56C285.492 53.56 281.252 55.2 278.052 58.48C274.852 61.68 273.252 66.36 273.252 72.52C273.252 76.12 273.772 79.16 274.812 81.64C275.852 84.12 277.212 86.12 278.892 87.64C280.572 89.16 282.452 90.24 284.532 90.88C286.692 91.52 288.852 91.84 291.012 91.84Z" fill="white"/>
<path d="M315.677 101.2V44.2H329.837V101.2H315.677ZM322.757 31.12C320.277 31.12 318.317 30.4 316.877 28.96C315.517 27.52 314.837 25.72 314.837 23.56C314.837 21.48 315.557 19.72 316.997 18.28C318.437 16.76 320.357 16 322.757 16C325.077 16 326.957 16.72 328.397 18.16C329.837 19.6 330.557 21.4 330.557 23.56C330.557 25.72 329.837 27.52 328.397 28.96C326.957 30.4 325.077 31.12 322.757 31.12Z" fill="white"/>
<path d="M372.032 102.4C369.712 102.4 367.472 102.12 365.312 101.56C363.232 101 361.472 100.24 360.032 99.28V128.8H345.992V43.84H356.912L358.592 50.56C360.832 48.4 363.392 46.64 366.272 45.28C369.152 43.84 372.432 43.12 376.112 43.12C383.632 43.12 389.552 45.64 393.872 50.68C398.272 55.64 400.472 62.6 400.472 71.56C400.472 76.68 399.672 81.16 398.072 85C396.552 88.84 394.472 92.08 391.832 94.72C389.272 97.28 386.272 99.2 382.832 100.48C379.392 101.76 375.792 102.4 372.032 102.4ZM372.512 54.04C369.632 54.04 367.112 54.76 364.952 56.2C362.792 57.56 361.152 58.92 360.032 60.28V88.6C361.392 89.72 362.952 90.56 364.712 91.12C366.472 91.6 368.312 91.84 370.232 91.84C372.152 91.84 374.032 91.48 375.872 90.76C377.712 90.04 379.352 88.92 380.792 87.4C382.312 85.8 383.512 83.76 384.392 81.28C385.352 78.72 385.832 75.6 385.832 71.92C385.832 66.64 384.712 62.36 382.472 59.08C380.312 55.72 376.992 54.04 372.512 54.04Z" fill="white"/>
<path d="M466.569 72.28C466.569 77 465.809 81.24 464.289 85C462.849 88.76 460.809 91.92 458.169 94.48C455.529 97.04 452.449 99 448.929 100.36C445.409 101.72 441.609 102.4 437.529 102.4C433.449 102.4 429.649 101.76 426.129 100.48C422.689 99.2 419.689 97.36 417.129 94.96C414.569 92.48 412.569 89.44 411.129 85.84C409.689 82.24 408.969 78.12 408.969 73.48C408.969 68.68 409.689 64.4 411.129 60.64C412.649 56.8 414.729 53.6 417.369 51.04C420.009 48.48 423.089 46.52 426.609 45.16C430.129 43.8 433.929 43.12 438.009 43.12C442.089 43.12 445.849 43.76 449.289 45.04C452.809 46.24 455.849 48.08 458.409 50.56C460.969 53.04 462.969 56.08 464.409 59.68C465.849 63.28 466.569 67.48 466.569 72.28ZM451.929 72.88C451.929 69.44 451.529 66.52 450.729 64.12C449.929 61.64 448.849 59.64 447.489 58.12C446.209 56.6 444.689 55.48 442.929 54.76C441.249 54.04 439.489 53.68 437.649 53.68C435.809 53.68 434.049 54 432.369 54.64C430.689 55.2 429.209 56.24 427.929 57.76C426.649 59.2 425.609 61.16 424.809 63.64C424.009 66.12 423.609 69.2 423.609 72.88C423.609 76.24 424.009 79.12 424.809 81.52C425.609 83.84 426.649 85.8 427.929 87.4C429.289 88.92 430.809 90.04 432.489 90.76C434.249 91.48 436.049 91.84 437.889 91.84C439.649 91.84 441.369 91.52 443.049 90.88C444.809 90.24 446.329 89.2 447.609 87.76C448.889 86.32 449.929 84.4 450.729 82C451.529 79.52 451.929 76.48 451.929 72.88Z" fill="white"/>
</svg>
