<svg width="191" height="47" viewBox="0 0 191 47" fill="none" xmlns="http://www.w3.org/2000/svg">
<path d="M36.6413 40.1133L21.7637 25.2997L25.3735 21.7003L40.2304 36.5348L36.6413 40.1133Z" fill="url(#paint0_linear)"/>
<path d="M10.4749 39.4059L7.24061 35.4945L29.5884 17.2479H4.94531V12.1921H43.8401L10.4749 39.4059Z" fill="url(#paint1_linear)"/>
<path d="M8.20046 41.2992L12.2068 38.012C7.88747 34.6414 5.09138 29.3776 5.09138 23.4896C5.09138 13.3364 13.3753 5.05578 23.5789 5.05578C33.7617 5.05578 42.0665 13.3156 42.0665 23.4896C42.0665 26.0487 41.5448 28.483 40.585 30.7092L44.4035 34.5166C46.1563 31.2293 47.1579 27.4843 47.1579 23.5104C47.137 10.5485 36.5578 0 23.5581 0C10.5792 0 0 10.5485 0 23.4896C0 30.6051 3.17168 36.9925 8.20046 41.2992Z" fill="url(#paint2_linear)"/>
<path d="M38.3113 34.5999C34.9309 39.0523 29.5892 41.9234 23.5797 41.9234C20.9505 41.9234 18.4466 41.3825 16.193 40.3838L11.8945 43.9C15.3375 45.8765 19.3229 47 23.5797 47C30.9872 47 37.6227 43.5671 41.942 38.22L38.3113 34.5999Z" fill="url(#paint3_linear)"/>
<path d="M7.26148 35.4945L8.65952 34.3502C6.42682 31.3126 5.11225 27.5467 5.11225 23.4896C5.11225 21.305 5.50871 19.2037 6.19729 17.2479H0.855519C0.312995 19.2453 0 21.3258 0 23.4896C0 30.6052 3.17168 36.9717 8.20046 41.2785L12.2068 37.9912L10.4958 39.3852L7.26148 35.4945Z" fill="url(#paint4_linear)"/>
<path d="M23.5588 41.9234C20.9296 41.9234 18.4257 41.3824 16.1721 40.3837L11.8945 43.8999C15.3375 45.8764 19.3229 46.9999 23.5797 46.9999C29.1718 46.9999 34.305 45.0442 38.3322 41.7985L34.7014 38.1783C31.6132 40.5294 27.7529 41.9234 23.5588 41.9234Z" fill="url(#paint5_linear)"/>
<path d="M40.5633 30.6884L44.3818 34.4958C46.1346 31.2085 47.1362 27.4635 47.1362 23.4896C47.1362 19.3077 46.0303 15.3754 44.0897 11.9633L43.8184 12.1713L40.0625 15.2297C41.3145 17.7056 42.0239 20.5144 42.0239 23.4896C42.0448 26.0279 41.5231 28.4622 40.5633 30.6884Z" fill="url(#paint6_linear)"/>
<path d="M73.4837 28.4657L70.3544 24.9734H66.3638V22.6261H71.3592C72.7086 22.6261 73.455 21.8245 73.455 20.4791C73.455 19.1337 72.6798 18.3894 71.3592 18.3894H64.7561V28.4657H62V15.6414H71.3305C74.345 15.6414 76.125 17.502 76.125 20.3932C76.125 22.4829 75.1201 23.9715 73.5124 24.6012L77.3595 28.4657H73.4837Z" fill="white"/>
<path d="M124.298 28.4657C120.623 28.4657 117.953 25.6318 117.953 21.9104C117.953 18.1318 120.652 15.6414 124.298 15.6414H127.485C131.274 15.6414 133.887 18.1891 133.887 21.9104C133.887 25.6318 131.188 28.4657 127.485 28.4657H124.298ZM127.485 25.7177C129.638 25.7177 131.131 24.1719 131.131 22.0535C131.131 19.9066 129.638 18.3894 127.485 18.3894H124.298C122.231 18.3894 120.709 19.9352 120.709 22.0535C120.709 24.1719 122.202 25.7177 124.298 25.7177H127.485Z" fill="white"/>
<path d="M139.086 28.4657V15.6414H141.842V25.7177H150.168V28.4657H139.086Z" fill="white"/>
<path d="M84.6799 18.3894H93.6085V15.6414H81.9238V18.3894H84.6799Z" fill="white"/>
<path d="M84.6799 25.7177V25.6891H81.9238V28.4658H93.6372V25.7177H84.6799Z" fill="white"/>
<path d="M88.7566 20.8513H81.9238V23.0269H88.7566V20.8513Z" fill="white"/>
<path d="M174.826 18.3894H183.755V15.6414H172.07V18.3894H174.826Z" fill="white"/>
<path d="M174.826 25.7177V25.6891H172.07V28.4658H183.784V25.7177H174.826Z" fill="white"/>
<path d="M178.903 20.8513H172.07V23.0269H178.903V20.8513Z" fill="white"/>
<path d="M97.5985 38.9422C96.0195 38.9422 94.8711 37.7399 94.8711 36.1369C94.8711 34.5052 96.0195 33.446 97.5985 33.446H100.642V34.6197H97.5985C96.7085 34.6197 96.0482 35.2781 96.0482 36.1941C96.0482 37.1101 96.6798 37.7685 97.5985 37.7685H99.8091V36.6235H97.4836V35.6789H101.015V38.9422H97.5985Z" fill="white"/>
<path d="M126.796 38.9429L125.878 35.4505L124.413 38.5707C124.27 38.857 124.098 39.0001 123.811 39.0001C123.523 39.0001 123.351 38.8284 123.208 38.5707L121.743 35.4505L120.853 38.9429H119.705L121.054 33.8475C121.141 33.5326 121.342 33.3608 121.629 33.3608C121.858 33.3608 122.088 33.504 122.231 33.7616L123.868 37.254L125.504 33.7616C125.619 33.504 125.82 33.3608 126.079 33.3608C126.366 33.3608 126.567 33.5326 126.653 33.8475L128.002 38.9429H126.796Z" fill="white"/>
<path d="M144.94 38.9429V37.7693H149.102C149.533 37.7693 149.763 37.5403 149.763 37.1968C149.763 36.8246 149.533 36.6242 149.102 36.6242H146.605C145.514 36.6242 144.854 35.9658 144.854 35.0498C144.854 34.1338 145.485 33.4468 146.633 33.4468H150.624V34.6204H146.633C146.289 34.6204 146.088 34.8208 146.088 35.1643C146.088 35.5078 146.289 35.7082 146.633 35.7082H149.131C150.308 35.7082 150.911 36.2235 150.911 37.3113C150.911 38.2559 150.337 38.9716 149.131 38.9716H144.94V38.9429Z" fill="white"/>
<path d="M111.036 33.733C110.892 33.504 110.72 33.3608 110.461 33.3608C110.203 33.3608 110.031 33.504 109.887 33.733L106.758 38.9429H108.107L110.433 35.0211L111.437 36.7101L111.983 37.6261L112.758 38.9429H114.194L111.036 33.733Z" fill="white"/>
<path d="M136.788 35.6796H133.859V36.6242H136.788V35.6796Z" fill="white"/>
<path d="M135.036 34.6205H135.41H138.883V33.4182H133.859V34.6205H135.036Z" fill="white"/>
<path d="M135.036 37.7693H133.859V38.943H138.883V37.7693H135.036Z" fill="white"/>
<path d="M87.1767 35.6794H66.4199V36.6241H87.1767V35.6794Z" fill="white"/>
<path d="M179.364 35.6794H158.607V36.6241H179.364V35.6794Z" fill="white"/>
<path d="M112.155 15.6414L106.786 24.8016L104.231 20.4791H100.93L105.322 27.7787C105.638 28.3226 106.04 28.6661 106.643 28.6661C107.217 28.6661 107.648 28.3226 107.963 27.7787L115.284 15.67H112.155V15.6414Z" fill="white"/>
<path d="M165.44 15.6414L160.072 24.8016L157.516 20.4791H154.215L158.607 27.7787C158.923 28.3226 159.325 28.6661 159.928 28.6661C160.502 28.6661 160.933 28.3226 161.249 27.7787L168.569 15.67H165.44V15.6414Z" fill="white"/>
<defs>
<linearGradient id="paint0_linear" x1="26.823" y1="40.1082" x2="39.1286" y2="12.8335" gradientUnits="userSpaceOnUse">
<stop stop-color="#774BBD"/>
<stop offset="1" stop-color="#A23BB8"/>
</linearGradient>
<linearGradient id="paint1_linear" x1="14.2833" y1="34.4506" x2="26.5889" y2="7.17603" gradientUnits="userSpaceOnUse">
<stop stop-color="#774BBD"/>
<stop offset="1" stop-color="#A23BB8"/>
</linearGradient>
<linearGradient id="paint2_linear" x1="17.8624" y1="36.0654" x2="30.168" y2="8.79081" gradientUnits="userSpaceOnUse">
<stop stop-color="#774BBD"/>
<stop offset="1" stop-color="#A23BB8"/>
</linearGradient>
<linearGradient id="paint3_linear" x1="27.2491" y1="40.3001" x2="39.5547" y2="13.0255" gradientUnits="userSpaceOnUse">
<stop stop-color="#774BBD"/>
<stop offset="1" stop-color="#A23BB8"/>
</linearGradient>
<linearGradient id="paint4_linear" x1="5.96265" y1="27.9948" x2="5.16358" y2="10.7336" gradientUnits="userSpaceOnUse">
<stop offset="0.0167598" stop-color="#774BBD" stop-opacity="0"/>
<stop offset="1" stop-color="#000040"/>
</linearGradient>
<linearGradient id="paint5_linear" x1="26.5511" y1="41.172" x2="35.1161" y2="31.1607" gradientUnits="userSpaceOnUse">
<stop offset="0.0167598" stop-color="#774BBD" stop-opacity="0"/>
<stop offset="1" stop-color="#000040"/>
</linearGradient>
<linearGradient id="paint6_linear" x1="43.6481" y1="22.4479" x2="42.8843" y2="5.94971" gradientUnits="userSpaceOnUse">
<stop offset="0.0167598" stop-color="#774BBD" stop-opacity="0"/>
<stop offset="1" stop-color="#000040"/>
</linearGradient>
</defs>
</svg>
