<svg id="SvgjsSvg1001" width="288" height="288" xmlns="http://www.w3.org/2000/svg" version="1.1" xmlns:xlink="http://www.w3.org/1999/xlink" xmlns:svgjs="http://svgjs.com/svgjs"><defs id="SvgjsDefs1002"></defs><g id="SvgjsG1008"><svg xmlns="http://www.w3.org/2000/svg" width="288" height="288" fill="none" viewBox="0 0 74 19"><path fill="#ffffff" d="M12.404 18H16.716L16.688 17.356C16.688 17.356 12.936 11.812 11.144 9.236L16.408 1.396L16.436 0.723999H12.404L8.792 5.96L5.124 0.723999H0.896V1.368C0.896 1.368 4.536 6.912 6.356 9.432L0.896 17.384V18H4.872C6.16 16.208 7.42 14.416 8.68 12.708L12.404 18ZM27.8006 18.476C32.0566 18.476 36.5086 15.536 36.5086 9.432C36.5086 3.44 32.0846 0.219999 27.8006 0.219999C23.5446 0.219999 19.0926 3.104 19.0926 9.376C19.0926 15.452 23.5446 18.476 27.8006 18.476ZM27.8006 4.336C30.9646 4.336 32.5606 6.66 32.5606 9.432C32.5606 12.176 30.9646 14.36 27.8006 14.36C24.6086 14.36 23.0126 12.092 23.0126 9.432C23.0126 6.632 24.6366 4.336 27.8006 4.336ZM52.4258 18H54.4698V0.723999H50.3538V9.488L42.0658 0.723999H39.6578V18H43.8298V8.816L52.4258 18ZM73.7427 10.944C73.7987 3.776 71.1947 0.415999 65.9867 0.415999C61.3667 0.415999 57.9227 3.412 57.9227 9.404C57.9227 15.508 61.6187 18.28 66.0987 18.28C68.7587 18.28 71.2507 17.384 72.6787 15.9L71.3347 12.596C69.7947 13.688 68.3107 14.388 66.2667 14.388C64.2787 14.388 62.4867 12.764 62.0387 10.916L73.7427 10.944ZM69.5427 7.164H62.3187C62.8787 5.372 64.1667 4.196 65.8187 4.196C68.5347 4.196 69.3747 6.044 69.5427 7.164Z" class="color3F3353 svgShape"></path></svg></g></svg>